<svg width="16" height="17" viewBox="0 0 16 17" fill="none" xmlns="http://www.w3.org/2000/svg">
<path fill-rule="evenodd" clip-rule="evenodd" d="M8.88411 12.9754C8.33213 13.6377 8 14.5251 8 15.4053C8 15.6814 7.77614 15.9053 7.5 15.9053C7.22386 15.9053 7 15.6814 7 15.4053C7 14.2854 7.41787 13.1728 8.11589 12.3352C8.81607 11.495 9.82321 10.9053 11 10.9053C12.1768 10.9053 13.1839 11.495 13.8841 12.3352C14.5821 13.1728 15 14.2854 15 15.4053C15 15.6814 14.7761 15.9053 14.5 15.9053C14.2239 15.9053 14 15.6814 14 15.4053C14 14.5251 13.6679 13.6377 13.1159 12.9754C12.5661 12.3156 11.8232 11.9053 11 11.9053C10.1768 11.9053 9.43393 12.3156 8.88411 12.9754Z" fill="black"/>
<path fill-rule="evenodd" clip-rule="evenodd" d="M11 8.90527C11.5523 8.90527 12 8.45756 12 7.90527C12 7.35299 11.5523 6.90527 11 6.90527C10.4477 6.90527 10 7.35299 10 7.90527C10 8.45756 10.4477 8.90527 11 8.90527ZM11 9.90527C12.1046 9.90527 13 9.00984 13 7.90527C13 6.8007 12.1046 5.90527 11 5.90527C9.89543 5.90527 9 6.8007 9 7.90527C9 9.00984 9.89543 9.90527 11 9.90527Z" fill="black"/>
<path fill-rule="evenodd" clip-rule="evenodd" d="M3 12.4053C3 12.1291 3.22386 11.9053 3.5 11.9053H5.5C5.77614 11.9053 6 12.1291 6 12.4053V15.4053C6 15.6814 5.77614 15.9053 5.5 15.9053C5.22386 15.9053 5 15.6814 5 15.4053V12.9053H4V15.4053C4 15.6814 3.77614 15.9053 3.5 15.9053H1.5C1.22386 15.9053 1 15.6814 1 15.4053C1 15.1291 1.22386 14.9053 1.5 14.9053H3V12.4053Z" fill="black"/>
<path fill-rule="evenodd" clip-rule="evenodd" d="M1 2.40527C1 2.12913 1.22386 1.90527 1.5 1.90527H7.5C7.77614 1.90527 8 2.12913 8 2.40527V10.4053C8 10.6814 7.77614 10.9053 7.5 10.9053H5C4.72386 10.9053 4.5 10.6814 4.5 10.4053C4.5 10.1291 4.72386 9.90527 5 9.90527H7V2.90527H2V15.4053C2 15.6814 1.77614 15.9053 1.5 15.9053C1.22386 15.9053 1 15.6814 1 15.4053V2.40527Z" fill="black"/>
<path fill-rule="evenodd" clip-rule="evenodd" d="M3 4.40527C3 4.12913 3.22386 3.90527 3.5 3.90527H5.5C5.77614 3.90527 6 4.12913 6 4.40527C6 4.68142 5.77614 4.90527 5.5 4.90527H3.5C3.22386 4.90527 3 4.68142 3 4.40527Z" fill="black"/>
<path fill-rule="evenodd" clip-rule="evenodd" d="M3 6.40527C3 6.12913 3.22386 5.90527 3.5 5.90527H5.5C5.77614 5.90527 6 6.12913 6 6.40527C6 6.68142 5.77614 6.90527 5.5 6.90527H3.5C3.22386 6.90527 3 6.68142 3 6.40527Z" fill="black"/>
<path fill-rule="evenodd" clip-rule="evenodd" d="M3 8.40527C3 8.12913 3.22386 7.90527 3.5 7.90527H5.5C5.77614 7.90527 6 8.12913 6 8.40527C6 8.68142 5.77614 8.90527 5.5 8.90527H3.5C3.22386 8.90527 3 8.68142 3 8.40527Z" fill="black"/>
<path fill-rule="evenodd" clip-rule="evenodd" d="M3 10.4053C3 10.1291 3.22386 9.90527 3.5 9.90527H5.5C5.77614 9.90527 6 10.1291 6 10.4053C6 10.6814 5.77614 10.9053 5.5 10.9053H3.5C3.22386 10.9053 3 10.6814 3 10.4053Z" fill="black"/>
</svg>
