<svg version="1.1" id="Ebene_1"
	xmlns="http://www.w3.org/2000/svg"
	xmlns:xlink="http://www.w3.org/1999/xlink" x="0px" y="0px" viewBox="0 0 16 17" style="enable-background:new 0 0 16 17;" xml:space="preserve">
	<path d="M15.5,7.8c-0.1-0.2-0.2-0.2-0.3-0.3l-2.4-0.7l0.1-2.1c0-0.2-0.1-0.4-0.3-0.5l0,0l-1.9-0.6L10,2.9C9.9,2.8,9.8,2.7,9.8,2.7
	c-0.1,0-0.2,0-0.3,0L8.3,3.1C8.1,3.2,8,3.4,8,3.6l0,0.5L5.4,4.8L3.8,4.1C3.5,3.9,3.2,4,3.1,4.2L2.2,5.7l0,0c-0.1,0.2-0.1,0.4,0,0.6
	l0.4,0.5L0.5,9.5C0.4,9.6,0.3,9.7,0.3,9.8l0.1,2.4l0,0c0,0.1,0.1,0.2,0.2,0.3c0.1,0.1,0.3,0.1,0.4,0.1l1.4-0.1l0,0
	c0.2,0,0.4-0.1,0.4-0.3l0,0L3.2,11l1.1,1.2c0,0.1,0.1,0.1,0.2,0.1c0.1,0,0.1,0,0.2,0l2.5,0.1l0,0c0.1,0,0.2,0,0.3-0.1
	c0.1,0,0.1-0.1,0.2-0.2l0.8-1.6l0.4,0.8l0.3,1.3c0,0.2,0.2,0.4,0.5,0.4l1.2,0.1l0,0c0.1,0,0.3-0.1,0.4-0.2c0.1-0.1,0.1-0.2,0.1-0.4
	v0l0.2-1.4l0.3-1.1l2,0.9l0,0c0,0,0.1,0,0.2,0c0.1,0,0.1,0,0.2,0c0.1-0.1,0.2-0.1,0.3-0.3l1.1-2.7C15.6,8,15.6,7.9,15.5,7.8z
	 M3.7,7.2c0.2-0.2,0.2-0.4,0-0.6L3.3,6l0.5-0.8l1.4,0.6l0,0c0,0,0.1,0,0.1,0c0,0,0.1,0,0.2,0l3.2-0.8l0,0C8.9,5,9.1,4.8,9.1,4.6L9,4
	l0.4-0.2L10,4.4l0,0c0.1,0.1,0.1,0.1,0.2,0.1l1.7,0.5l-0.1,2.1v0c0,0.2,0.2,0.4,0.4,0.5l0,0l2.2,0.6L13.7,10l-2-0.9l0,0
	c-0.1,0-0.2-0.1-0.4,0c-0.1,0.1-0.2,0.1-0.3,0.3l0,0L10.5,11c0,0,0,0.1,0,0.1c0,0,0,0.1,0,0.1l-0.2,1l-0.3,0l-0.3-1l0,0
	c0-0.1-0.1-0.1-0.1-0.2l0,0L8.8,9.3l0,0C8.7,9.1,8.5,9,8.4,9h0l0,0C8.2,9.1,8.1,9.2,8,9.3l-1.1,2.1l-1.9,0L3.4,9.7l0,0
	C3.3,9.6,3.1,9.6,2.9,9.6c-0.2,0-0.3,0.2-0.4,0.3L2,11.6l-0.5,0L1.4,10L3.7,7.2z"/>
</svg>
