<svg width="16" height="17" viewBox="0 0 16 17" fill="none" xmlns="http://www.w3.org/2000/svg">
<path fill-rule="evenodd" clip-rule="evenodd" d="M9.46375 9.84527C10.3433 8.59686 11 7.18705 11 6.15527C11 4.49842 9.65685 3.15527 8 3.15527C6.34315 3.15527 5 4.49842 5 6.15527C5 7.18705 5.65673 8.59686 6.53625 9.84527C6.95953 10.4461 7.39637 10.9552 7.75474 11.3027C7.84681 11.392 7.92892 11.4659 8 11.5256C8.07108 11.4659 8.15319 11.392 8.24526 11.3027C8.60363 10.9552 9.04047 10.4461 9.46375 9.84527ZM8 12.6553C8.75 12.6553 12 8.86441 12 6.15527C12 3.94613 10.2091 2.15527 8 2.15527C5.79086 2.15527 4 3.94613 4 6.15527C4 8.86441 7.25 12.6553 8 12.6553Z" fill="black"/>
<circle cx="8" cy="6.15527" r="1" fill="black"/>
<path fill-rule="evenodd" clip-rule="evenodd" d="M10.2925 10.2545C10.426 10.071 10.5 9.8683 10.5 9.65524C10.5 9.51871 10.4696 9.38645 10.4126 9.26074C10.6011 9.29166 10.789 9.32899 10.9747 9.37224C11.2437 9.43488 11.4109 9.70367 11.3483 9.97262C11.2857 10.2416 11.0169 10.4088 10.7479 10.3462C10.5968 10.311 10.4446 10.2804 10.2925 10.2545ZM5.7075 10.2545C5.55537 10.2804 5.40317 10.311 5.25209 10.3462C4.98314 10.4088 4.71434 10.2416 4.65171 9.97262C4.58908 9.70367 4.75633 9.43488 5.02527 9.37224C5.21099 9.32899 5.3989 9.29166 5.58736 9.26074C5.5304 9.38645 5.5 9.51871 5.5 9.65524C5.5 9.8683 5.57403 10.071 5.7075 10.2545ZM13.6708 10.6125C13.4609 10.433 13.1453 10.4575 12.9658 10.6673C12.7862 10.8772 12.8108 11.1928 13.0206 11.3723C13.3729 11.6737 13.5 11.9431 13.5 12.1552C13.5 12.2946 13.4472 12.4546 13.3008 12.6367C13.1277 12.8519 13.1619 13.1666 13.3771 13.3397C13.5923 13.5127 13.907 13.4786 14.0801 13.2634C14.3352 12.9461 14.5 12.5716 14.5 12.1552C14.5 11.5278 14.1304 11.0058 13.6708 10.6125ZM2.97939 11.3723C3.1892 11.1928 3.21375 10.8772 3.03422 10.6673C2.85469 10.4575 2.53906 10.433 2.32924 10.6125C1.8696 11.0058 1.5 11.5278 1.5 12.1552C1.5 12.5716 1.66477 12.9461 1.91992 13.2634C2.09297 13.4786 2.4077 13.5127 2.6229 13.3397C2.83809 13.1666 2.87226 12.8519 2.69921 12.6367C2.55279 12.4546 2.5 12.2946 2.5 12.1552C2.5 11.9431 2.62711 11.6737 2.97939 11.3723ZM3.93242 13.4543C3.67785 13.3472 3.38474 13.4669 3.27773 13.7214C3.17073 13.976 3.29035 14.2691 3.54492 14.3761C4.0616 14.5933 4.65736 14.7702 5.30663 14.9002C5.5774 14.9544 5.84085 14.7788 5.89505 14.5081C5.94926 14.2373 5.7737 13.9739 5.50293 13.9197C4.90723 13.8004 4.37717 13.6412 3.93242 13.4543ZM12.4551 14.3761C12.7096 14.2691 12.8293 13.976 12.7223 13.7214C12.6153 13.4669 12.3222 13.3472 12.0676 13.4543C11.6228 13.6412 11.0928 13.8004 10.4971 13.9197C10.2263 13.9739 10.0507 14.2373 10.1049 14.5081C10.1592 14.7788 10.4226 14.9544 10.6934 14.9002C11.3426 14.7702 11.9384 14.5933 12.4551 14.3761ZM7.16016 14.1301C6.88452 14.1134 6.64755 14.3233 6.63087 14.5989C6.61418 14.8746 6.82411 15.1116 7.09975 15.1282C7.39391 15.146 7.69449 15.1552 8 15.1552C8.30551 15.1552 8.60609 15.146 8.90025 15.1282C9.17589 15.1116 9.38582 14.8746 9.36913 14.5989C9.35245 14.3233 9.11548 14.1134 8.83984 14.1301C8.5659 14.1466 8.28547 14.1552 8 14.1552C7.71453 14.1552 7.4341 14.1466 7.16016 14.1301Z" fill="black"/>
</svg>
