<?xml version="1.0" encoding="utf-8"?>
<!-- Generator: Adobe Illustrator 24.1.0, SVG Export Plug-In . SVG Version: 6.00 Build 0)  -->
<svg version="1.1" id="Ebene_1" xmlns="http://www.w3.org/2000/svg" xmlns:xlink="http://www.w3.org/1999/xlink" x="0px" y="0px"
	 viewBox="0 0 16 17" style="enable-background:new 0 0 16 17;" xml:space="preserve">
<style type="text/css">
	.st0{fill-rule:evenodd;clip-rule:evenodd;}
</style>
<path class="st0" d="M9,11.4c-0.5,0-0.9-0.1-1.3-0.1c-0.4,0.1-0.8,0.1-1.2,0.1c-0.8,0-1.4-0.2-1.9-0.4C4.1,10.8,4,10.5,4,10.4
	S4.1,10,4.6,9.8c0.2-0.1,0.6-0.2,0.9-0.3c0,0,0-0.1,0-0.1V8.5C5,8.6,4.5,8.7,4.2,8.9C3.6,9.2,3,9.7,3,10.4v2c0,0.7,0.6,1.2,1.2,1.5
	c0.6,0.3,1.5,0.5,2.3,0.5s1.7-0.2,2.3-0.5c0.6-0.3,1.2-0.8,1.2-1.5v-1.1C9.7,11.4,9.3,11.4,9,11.4z M9,12.4c0,0.1-0.1,0.4-0.6,0.6
	c-0.5,0.2-1.1,0.4-1.9,0.4S5.1,13.2,4.6,13C4.1,12.8,4,12.5,4,12.4v-0.6c0.1,0,0.1,0.1,0.2,0.1c0.6,0.3,1.5,0.5,2.3,0.5
	s1.7-0.2,2.3-0.5c0.1,0,0.1-0.1,0.2-0.1V12.4z"/>
<path class="st0" d="M11.3,5.9c-0.1-0.1-0.2-0.1-0.3-0.1v0.7c0,0.1,0,0.3-0.1,0.4c0.5,0.2,0.6,0.5,0.6,0.6c0,0.1-0.1,0.4-0.6,0.6
	C10.4,8.2,9.8,8.4,9,8.4c-0.3,0-0.5,0-0.7-0.1C8,8.4,7.8,8.4,7.5,8.4c-0.7,0-1.4-0.1-2-0.3v1.3c0,0.7,0.6,1.2,1.2,1.5
	c0.6,0.3,1.5,0.5,2.3,0.5s1.7-0.2,2.3-0.5c0.6-0.3,1.2-0.8,1.2-1.5v-2C12.5,6.7,11.9,6.2,11.3,5.9z M11.5,9.4c0,0.1-0.1,0.4-0.6,0.6
	c-0.5,0.2-1.1,0.4-1.9,0.4S7.6,10.2,7.1,10C6.6,9.8,6.5,9.5,6.5,9.4V8.8c0.1,0,0.1,0.1,0.2,0.1C7.3,9.2,8.1,9.4,9,9.4
	s1.7-0.2,2.3-0.5c0.1,0,0.1-0.1,0.2-0.1V9.4z"/>
<path class="st0" d="M5.6,3.8C5.1,4,5,4.3,5,4.4S5.1,4.8,5.6,5c0.5,0.2,1.1,0.4,1.9,0.4S8.9,5.2,9.4,5C9.9,4.8,10,4.5,10,4.4
	S9.9,4,9.4,3.8C8.9,3.6,8.3,3.4,7.5,3.4S6.1,3.6,5.6,3.8z M10,5.8c-0.1,0-0.1,0.1-0.2,0.1C9.2,6.2,8.4,6.4,7.5,6.4S5.8,6.2,5.2,5.9
	C5.1,5.9,5.1,5.9,5,5.8v0.6C5,6.5,5.1,6.8,5.6,7c0.5,0.2,1.1,0.4,1.9,0.4S8.9,7.2,9.4,7C9.9,6.8,10,6.5,10,6.4V5.8z M11,4.4v2
	c0,0.7-0.6,1.2-1.2,1.5C9.2,8.2,8.4,8.4,7.5,8.4S5.8,8.2,5.2,7.9C4.6,7.6,4,7.1,4,6.4v-2c0-0.7,0.6-1.2,1.2-1.5
	c0.6-0.3,1.5-0.5,2.3-0.5s1.7,0.2,2.3,0.5C10.4,3.2,11,3.7,11,4.4z"/>
</svg>
