<svg width="16" height="17" viewBox="0 0 16 17" fill="none" xmlns="http://www.w3.org/2000/svg">
<path fill-rule="evenodd" clip-rule="evenodd" d="M4.00061 4.90527V6.90527H6.00061V4.90527H4.00061ZM3.00061 6.90527C3.00061 7.45756 3.44833 7.90527 4.00061 7.90527H6.00061C6.5529 7.90527 7.00061 7.45756 7.00061 6.90527V4.90527C7.00061 4.35299 6.5529 3.90527 6.00061 3.90527H4.00061C3.44833 3.90527 3.00061 4.35299 3.00061 4.90527V6.90527Z" fill="black"/>
<path fill-rule="evenodd" clip-rule="evenodd" d="M10.0006 4.90527V6.90527H12.0006V4.90527H10.0006ZM9.00061 6.90527C9.00061 7.45756 9.44833 7.90527 10.0006 7.90527H12.0006C12.5529 7.90527 13.0006 7.45756 13.0006 6.90527V4.90527C13.0006 4.35299 12.5529 3.90527 12.0006 3.90527H10.0006C9.44833 3.90527 9.00061 4.35299 9.00061 4.90527V6.90527Z" fill="black"/>
<path fill-rule="evenodd" clip-rule="evenodd" d="M4.00061 10.9053V12.9053H6.00061V10.9053H4.00061ZM3.00061 12.9053C3.00061 13.4576 3.44833 13.9053 4.00061 13.9053H6.00061C6.5529 13.9053 7.00061 13.4576 7.00061 12.9053V10.9053C7.00061 10.353 6.5529 9.90527 6.00061 9.90527H4.00061C3.44833 9.90527 3.00061 10.353 3.00061 10.9053V12.9053Z" fill="black"/>
<path fill-rule="evenodd" clip-rule="evenodd" d="M10.0006 10.9053V12.9053H12.0006V10.9053H10.0006ZM9.00061 12.9053C9.00061 13.4576 9.44833 13.9053 10.0006 13.9053H12.0006C12.5529 13.9053 13.0006 13.4576 13.0006 12.9053V10.9053C13.0006 10.353 12.5529 9.90527 12.0006 9.90527H10.0006C9.44833 9.90527 9.00061 10.353 9.00061 10.9053V12.9053Z" fill="black"/>
</svg>
