<svg width="19" height="19" viewBox="0 0 19 19" fill="none" xmlns="http://www.w3.org/2000/svg">
<path d="M2.44905 1.05559C2.05853 0.665066 1.42537 0.665062 1.03484 1.05558C0.644314 1.44611 0.64431 2.07927 1.03483 2.4698L2.44905 1.05559ZM17.0649 18.5001C17.4554 18.8906 18.0886 18.8906 18.4791 18.5001C18.8697 18.1096 18.8697 17.4764 18.4791 17.0859L17.0649 18.5001ZM1.03484 17.0859C0.644312 17.4764 0.644312 18.1096 1.03484 18.5001C1.42536 18.8906 2.05853 18.8906 2.44905 18.5001L1.03484 17.0859ZM18.4793 2.4698C18.8698 2.07928 18.8698 1.44611 18.4793 1.05559C18.0888 0.665064 17.4556 0.665064 17.0651 1.05559L18.4793 2.4698ZM1.03483 2.4698L17.0649 18.5001L18.4791 17.0859L2.44905 1.05559L1.03483 2.4698ZM2.44905 18.5001L18.4793 2.4698L17.0651 1.05559L1.03484 17.0859L2.44905 18.5001Z" fill="black"/>
</svg>
