<svg width="17" height="12" viewBox="0 0 17 12" fill="none" xmlns="http://www.w3.org/2000/svg">
<path d="M2.07415 3.00344L1.98867 2.91732V3.03866V10.2802V10.3302H2.03867H15.4746H15.5246V10.2802V3.03866V2.91732L15.4392 3.00344L9.88003 8.60349C9.20497 9.07385 8.30833 9.07384 7.63327 8.60348L2.07415 3.00344ZM14.3391 2.2534L14.4213 2.1686H14.3032H3.21013H3.092L3.17423 2.2534L8.33548 7.57601L8.33482 7.57665L8.34271 7.58217C8.59129 7.7561 8.92201 7.7561 9.17059 7.58217L9.17112 7.58293L9.17782 7.57601L14.3391 2.2534ZM0.745068 2.04778C0.745068 1.4277 1.24777 0.925 1.86785 0.925H15.6455C16.2655 0.925 16.7682 1.4277 16.7682 2.04778V10.451C16.7682 11.0711 16.2655 11.5738 15.6455 11.5738H1.86785C1.24777 11.5738 0.745068 11.0711 0.745068 10.451V2.04778Z" fill="black" stroke="white" stroke-width="0.1"/>
</svg>
