<svg width="15" height="15" viewBox="0 0 15 15" fill="none" xmlns="http://www.w3.org/2000/svg">
<path d="M4.32063 0.675453L4.30633 0.674022L4.29197 0.673267L3.57108 0.635325V0.635323L3.56948 0.635243C2.90823 0.60218 2.23601 1.04881 1.76962 1.63992C1.27655 2.26486 0.917497 3.157 0.917497 4.24245H0.917457L0.917537 4.24947C0.928595 5.21153 1.29091 6.26693 1.83277 7.28438C2.37938 8.31076 3.13329 9.3446 3.98502 10.2749C4.83672 11.2051 5.79899 12.0457 6.77091 12.6776C7.73362 13.3036 8.74983 13.7534 9.70342 13.8425C10.8034 13.95 11.7302 13.6821 12.401 13.2426C13.0433 12.8218 13.5267 12.1842 13.5584 11.5184L13.5591 11.5038V11.4893V10.832C13.587 10.446 13.4316 10.1374 13.1859 9.92115C12.9775 9.73773 12.7105 9.6286 12.5303 9.55651L12.5225 9.55339L12.5146 9.55048C12.1694 9.42332 11.8219 9.2771 11.4591 9.12436L11.4528 9.1217C11.0971 8.97194 10.7265 8.8159 10.3536 8.67844C10.0254 8.55592 9.72631 8.60633 9.50668 8.68767C9.33627 8.75079 9.17752 8.84913 9.09859 8.89802C9.08634 8.90561 9.07602 8.91201 9.06787 8.9169L9.02373 8.94338L8.98465 8.97688C8.9541 9.00306 8.92388 9.02878 8.89387 9.05432C8.71382 9.20751 8.5416 9.35406 8.35617 9.55303C6.89566 8.78996 5.7033 7.495 5.07672 6.00433C5.32068 5.79046 5.50709 5.60406 5.71144 5.3997L5.71605 5.39509C5.89731 5.21383 6.30153 4.7315 6.14224 4.09437L6.13773 4.07632L6.13213 4.05859C6.01987 3.70309 5.90733 3.32799 5.79325 2.94773L5.79255 2.94539C5.67964 2.56904 5.56522 2.18762 5.45051 1.82424C5.3968 1.64526 5.31649 1.38306 5.16234 1.16401C4.97773 0.901665 4.69945 0.713335 4.32063 0.675453ZM4.96791 6.0984C4.96785 6.09839 4.9685 6.09765 4.97 6.09619C4.96871 6.09768 4.96796 6.09841 4.96791 6.0984Z" stroke="black" stroke-width="1.22116"/>
</svg>
