<svg width="30" height="8" viewBox="0 0 30 8" fill="none" xmlns="http://www.w3.org/2000/svg">
<path fill-rule="evenodd" clip-rule="evenodd" d="M9.65813 1.20727C9.67471 1.1553 9.66549 1.09853 9.63331 1.05447C9.60113 1.01042 9.54985 0.984375 9.49529 0.984375H8.44236C8.36537 0.984375 8.29788 1.03585 8.27752 1.1101L7.04792 5.5939L5.90386 1.11302C5.88454 1.03733 5.81636 0.984375 5.73825 0.984375H4.62549C4.54681 0.984375 4.47829 1.03809 4.4595 1.1145L3.36013 5.58599L2.12202 1.10974C2.10153 1.03567 2.03413 0.984375 1.95727 0.984375H0.832552C0.777942 0.984375 0.726618 1.01047 0.694442 1.05459C0.662266 1.09872 0.653111 1.15556 0.669806 1.20756L2.65601 7.39352C2.67872 7.46423 2.74449 7.51219 2.81876 7.51219H3.91955C3.9978 7.51219 4.06606 7.45906 4.08526 7.3832L5.17662 3.07021L6.27858 7.38357C6.29791 7.45925 6.36608 7.51219 6.44419 7.51219H7.52105C7.59543 7.51219 7.66127 7.46409 7.68388 7.39323L9.65813 1.20727ZM7.03048 6.21654H7.05441L8.44236 1.15531H9.49529L9.49499 1.15625H8.44236L7.05441 6.21749H7.03048L5.73824 1.15625H4.62549L3.38112 6.21749H3.35719L1.95727 1.15625H0.832856L0.832552 1.15531H1.95727L3.35719 6.21654H3.38112L4.62549 1.15531H5.73825L7.03048 6.21654ZM19.7596 1.20727C19.7761 1.1553 19.7669 1.09853 19.7347 1.05447C19.7026 1.01042 19.6513 0.984375 19.5967 0.984375H18.5438C18.4668 0.984375 18.3993 1.03585 18.3789 1.1101L17.1493 5.5939L16.0053 1.11302C15.986 1.03733 15.9178 0.984375 15.8397 0.984375H14.7269C14.6482 0.984375 14.5797 1.03809 14.5609 1.1145L13.4616 5.58599L12.2234 1.10974C12.203 1.03567 12.1356 0.984375 12.0587 0.984375H10.934C10.8794 0.984375 10.8281 1.01047 10.7959 1.05459C10.7637 1.09872 10.7545 1.15556 10.7712 1.20756L12.7574 7.39352C12.7802 7.46423 12.8459 7.51219 12.9202 7.51219H14.021C14.0992 7.51219 14.1675 7.45906 14.1867 7.3832L15.2781 3.07021L16.38 7.38357C16.3993 7.45925 16.4675 7.51219 16.5456 7.51219H17.6225C17.6969 7.51219 17.7627 7.46409 17.7853 7.39323L19.7596 1.20727ZM17.1319 6.21654H17.1558L18.5438 1.15531H19.5967L19.5964 1.15625H18.5438L17.1558 6.21749H17.1319L15.8397 1.15625H14.7269L13.4826 6.21749H13.4586L12.0587 1.15625H10.9343L10.934 1.15531H12.0587L13.4586 6.21654H13.4826L14.7269 1.15531H15.8397L17.1319 6.21654ZM29.861 1.20727C29.8776 1.1553 29.8684 1.09853 29.8362 1.05447C29.804 1.01042 29.7527 0.984375 29.6982 0.984375H28.6452C28.5682 0.984375 28.5007 1.03585 28.4804 1.1101L27.2508 5.5939L26.1067 1.11302C26.0874 1.03733 26.0192 0.984375 25.9411 0.984375H24.8284C24.7497 0.984375 24.6812 1.03809 24.6624 1.1145L23.563 5.58599L22.3249 1.10974C22.3044 1.03567 22.237 0.984375 22.1601 0.984375H21.0354C20.9808 0.984375 20.9295 1.01047 20.8973 1.05459C20.8651 1.09872 20.856 1.15556 20.8727 1.20756L22.8589 7.39352C22.8816 7.46423 22.9474 7.51219 23.0216 7.51219H24.1224C24.2007 7.51219 24.2689 7.45906 24.2881 7.3832L25.3795 3.07021L26.4814 7.38357C26.5008 7.45925 26.5689 7.51219 26.6471 7.51219H27.7239C27.7983 7.51219 27.8641 7.46409 27.8868 7.39323L29.861 1.20727ZM27.2333 6.21654H27.2573L28.6452 1.15531H29.6982L29.6979 1.15625H28.6452L27.2573 6.21749H27.2333L25.9411 1.15625H24.8284L23.584 6.21749H23.5601L22.1601 1.15625H21.0357L21.0354 1.15531H22.1601L23.5601 6.21654H23.584L24.8284 1.15531H25.9411L27.2333 6.21654Z" fill="black"/>
</svg>
