<?xml version="1.0" encoding="utf-8"?>
<svg version="1.1" id="Ebene_1"
	xmlns="http://www.w3.org/2000/svg"
	xmlns:xlink="http://www.w3.org/1999/xlink" x="0px" y="0px" viewBox="0 0 22 20" style="enable-background:new 0 0 22 20;" xml:space="preserve">
	<style type="text/css">
	.st0{fill:#FFFFFF;}
	</style>
	<path class="st0" d="M4.1,10.8c0.4,0,0.8-0.3,0.8-0.8c0-0.4-0.3-0.8-0.8-0.8V10.8z M0.8,10V9.2C0.4,9.2,0,9.6,0,10H0.8z M0.8,18.7H0
	c0,0.4,0.3,0.8,0.8,0.8V18.7z M21.2,18.7v0.8c0.4,0,0.8-0.3,0.8-0.8H21.2z M21.2,10H22c0-0.4-0.3-0.8-0.8-0.8V10z M18.4,9.2
	c-0.4,0-0.8,0.3-0.8,0.8c0,0.4,0.3,0.8,0.8,0.8V9.2z M6.3,14.2H5.6c0,0.4,0.3,0.8,0.8,0.8V14.2z M15.8,14.2V15
	c0.4,0,0.8-0.3,0.8-0.8H15.8z M15.8,2.7h0.8c0-0.2-0.1-0.4-0.2-0.5L15.8,2.7z M14.5,1.3L15,0.8c-0.1-0.1-0.3-0.2-0.5-0.2V1.3z
	 M6.3,1.3V0.6c-0.4,0-0.8,0.3-0.8,0.8H6.3z M4.1,9.2H0.8v1.5h3.3V9.2z M0,10v8.7h1.5V10H0z M0.8,19.4h20.4v-1.5H0.8V19.4z M22,18.7
	V10h-1.5v8.7H22z M21.2,9.2h-2.8v1.5h2.8V9.2z M6.3,15h9.5v-1.5H6.3V15z M16.6,14.2V2.7h-1.5v11.6H16.6z M16.4,2.1L15,0.8l-1.1,1.1
	l1.3,1.3L16.4,2.1z M14.5,0.6H6.3v1.5h8.2V0.6z M5.6,1.3v12.9h1.5V1.3H5.6z"/>
	<path class="st0" d="M12.7,6.5H9.6c-0.4,0-0.8-0.3-0.8-0.8s0.3-0.8,0.8-0.8h3.1c0.4,0,0.8,0.3,0.8,0.8S13.2,6.5,12.7,6.5z"/>
	<path class="st0" d="M12.7,10.7H9.6c-0.4,0-0.8-0.3-0.8-0.8s0.3-0.8,0.8-0.8h3.1c0.4,0,0.8,0.3,0.8,0.8S13.2,10.7,12.7,10.7z"/>
</svg>
