<?xml version="1.0" encoding="utf-8"?>
<!-- Generator: Adobe Illustrator 24.1.0, SVG Export Plug-In . SVG Version: 6.00 Build 0)  -->
<svg version="1.1" id="Ebene_1"
    xmlns="http://www.w3.org/2000/svg"
    xmlns:xlink="http://www.w3.org/1999/xlink" x="0px" y="0px" viewBox="0 0 20 20" style="enable-background:new 0 0 20 20;" xml:space="preserve">
    <style type="text/css">
	.st0{fill:none;stroke:#000000;stroke-width:2;stroke-linecap:round;stroke-linejoin:round;}
    </style>
    <path d="M10.1,2.6c0.6,0,1-0.4,1-1c0-0.6-0.4-1-1-1V2.6z M15.9,2.6c-0.4-0.3-1.1-0.3-1.4,0.2c-0.3,0.4-0.3,1.1,0.2,1.4L15.9,2.6z
	 M17.6,10.1c0,4.2-3.4,7.5-7.5,7.5v2c5.3,0,9.5-4.3,9.5-9.5H17.6z M10.1,17.6c-4.2,0-7.5-3.4-7.5-7.5h-2c0,5.3,4.3,9.5,9.5,9.5V17.6
	z M2.6,10.1c0-4.2,3.4-7.5,7.5-7.5v-2c-5.3,0-9.5,4.3-9.5,9.5H2.6z M14.7,4.1c1.8,1.4,2.9,3.5,2.9,6h2c0-3.1-1.5-5.8-3.7-7.5
	L14.7,4.1z"/>
    <path class="st0" d="M18.8,3.8l-3.5-0.5L15.2,7"/>
</svg>
